<svg width="106" height="37" viewBox="0 0 106 37" fill="none" xmlns="http://www.w3.org/2000/svg">
<g id="Logo" clip-path="url(#clip0_59_736)">
<path id="Vector" fill-rule="evenodd" clip-rule="evenodd" d="M87.3456 0.103745C83.4052 0.685972 80.0422 1.88007 77.439 3.65427C75.2579 5.13842 74.2859 6.09116 72.8668 8.05379C70.5806 11.2867 69.5813 14.5451 69.5562 18.8663C69.5562 24.2461 71.4224 28.7239 75.0479 31.9823C79.6979 36.1701 86.741 37.7855 95.2012 36.6464C96.7778 36.4347 98.6693 36.0896 99.4061 35.8779C100.141 35.6662 101.403 35.374 102.244 35.1898C103.978 34.8447 104.321 34.3408 103.454 33.4135C102.876 32.8037 102.849 32.5645 102.849 28.5651C102.849 25.8085 102.954 24.2461 103.139 24.0597C103.296 23.901 104.006 23.6088 104.715 23.4246C105.924 23.107 106.002 23.0541 106.002 22.2326V21.3582L97.9093 21.3307C92.2601 21.3032 89.764 21.3836 89.5541 21.5953C89.3966 21.7541 89.3169 22.2051 89.4218 22.5502C89.5541 23.1324 89.764 23.2383 90.9459 23.3992C93.1796 23.6914 94.2838 24.0343 94.5714 24.5912C94.9136 25.2009 94.9136 32.2766 94.5987 33.151C93.9164 34.9273 88.7123 34.7939 85.0091 32.8863C82.3283 31.508 79.912 28.1438 78.94 24.4599C78.2829 21.8896 78.0205 18.3645 78.2829 15.7159C78.9127 9.64804 81.3311 5.59362 85.5864 3.58017C87.268 2.78622 87.5052 2.73118 90.4988 2.73118C93.4924 2.73118 93.7569 2.78411 95.1235 3.47219C97.015 4.39952 98.854 6.38756 99.8785 8.58732C100.666 10.2832 100.693 10.3107 101.64 10.2303C102.402 10.1773 102.587 10.0439 102.534 9.62051C102.507 9.32834 102.349 7.36782 102.192 5.24851C102.034 3.15461 101.85 1.38041 101.797 1.32748C101.745 1.27455 100.536 0.982378 99.1164 0.692323C96.6455 0.188432 89.3169 -0.182076 87.3456 0.110096V0.103745Z" fill="white"/>
<path id="Vector_2" fill-rule="evenodd" clip-rule="evenodd" d="M0.453481 0.925229C0.296034 1.11154 0.243551 1.56039 0.348516 1.90549C0.480772 2.43478 0.743185 2.56817 2.13502 2.83282C3.21196 3.01913 3.94882 3.30918 4.23642 3.65429C4.8935 4.47576 5.02366 7.41653 4.91869 20.4013C4.83892 31.9272 4.81373 32.2469 4.2889 32.9879C3.86904 33.5448 3.42189 33.7819 2.44992 33.9428C-0.2036 34.4192 -0.0461524 34.3408 0.033621 35.2682L0.113394 36.1171L14.2228 36.1976L28.3322 36.2505L29.1467 33.7332C29.5666 32.3295 30.0935 30.3669 30.251 29.3337C30.5407 27.7437 30.5134 27.4261 30.1985 27.2144C29.279 26.6321 28.5421 27.0556 27.4127 28.9632C24.9691 33.0176 24.1273 33.4685 19.0302 33.441C14.8778 33.441 14.0108 33.1764 13.1962 31.6647C12.7491 30.8962 12.7239 29.7296 12.7239 17.6997C12.7239 2.88786 12.6714 3.3113 14.6154 2.99372C16.4544 2.67614 16.9267 2.4369 17.0065 1.82715C17.059 1.48205 16.9792 1.08614 16.849 0.952752C16.4544 0.554721 0.795667 0.529314 0.453481 0.925229Z" fill="white"/>
<path id="Vector_3" fill-rule="evenodd" clip-rule="evenodd" d="M33.1669 0.925225C33.0871 1.08401 33.0871 1.50745 33.1396 1.82715C33.1921 2.30351 33.5594 2.54276 35.1633 3.01912C36.3452 3.38963 37.397 3.89352 37.8693 4.36989C38.6041 5.05798 43.1763 11.7631 46.2245 16.5861L47.6164 18.8112L47.144 19.7661C46.9068 20.2954 45.3827 22.6539 43.7809 24.9596C38.4466 32.6979 37.5544 33.5723 34.4013 34.1545C32.5098 34.4996 32.0899 34.8426 32.5623 35.7445C32.8247 36.2209 33.1396 36.2484 39.3409 36.1955L45.8298 36.115L45.9096 35.266C45.9894 34.4721 45.9369 34.417 44.9901 34.2583C42.9139 33.9132 42.809 33.8602 42.809 33.2505C42.809 32.3761 48.9053 21.9616 49.405 21.9362C49.6149 21.9362 53.6875 28.2158 55.3964 31.1312C56.0262 32.1919 56.4733 33.2251 56.3956 33.4368C56.3159 33.6485 55.791 33.9132 55.2389 33.9936C52.6631 34.417 52.768 34.3641 52.8478 35.266L52.9276 36.115H70.7947L70.8745 35.3465C70.9795 34.4446 70.6121 34.127 69.3504 34.127C68.1685 34.0995 66.4597 33.333 65.5402 32.3782C64.7529 31.5292 55.9758 18.3074 55.1088 16.6115L54.5839 15.5508L55.2935 14.4371C56.6329 12.3708 60.4704 7.25562 61.942 5.55975C63.6235 3.62464 64.2533 3.22873 66.4345 2.88362C67.3288 2.75024 68.1685 2.53852 68.3008 2.46019C68.643 2.24847 68.643 1.0819 68.3008 0.870178C68.1433 0.764318 65.2274 0.683865 61.8118 0.683865C56.0303 0.683865 55.558 0.736795 55.4006 1.18776C55.1381 1.9817 55.453 2.56605 56.2424 2.69731C56.6622 2.77777 57.3466 2.93655 57.7917 3.01489C58.2115 3.09534 58.6335 3.27954 58.7384 3.41292C58.8182 3.54631 58.5012 4.34025 58.0562 5.18924C57.1094 6.88511 53.064 13.1922 52.9066 13.1922C52.4867 13.1922 47.2847 4.55409 47.2847 3.86388C47.2847 3.33459 47.8368 2.98948 49.1761 2.75024C50.2006 2.56393 50.6477 1.87584 50.2279 1.13483C50.0431 0.764318 48.941 0.711389 41.6627 0.658459C35.4362 0.605529 33.255 0.685982 33.1753 0.923108L33.1669 0.925225Z" fill="white"/>
</g>
<defs>
<clipPath id="clip0_59_736">
<rect width="106" height="37" fill="white"/>
</clipPath>
</defs>
</svg>
